<svg width="500" height="621" viewBox="0 0 500 621" fill="none" xmlns="http://www.w3.org/2000/svg">
<path d="M426.778 212.478L426.759 212.489L426.739 212.499L378.578 237.817L337.031 259.659L383.938 261.373C421.213 262.735 456.621 283.203 475.137 318.021L475.137 318.022C502.673 369.797 482.685 433.918 430.168 461.263L430.148 461.274L430.127 461.285L173.342 596.196C173.334 596.2 173.326 596.204 173.318 596.208C120.771 623.576 55.8042 603.567 28.2389 551.735C0.706848 499.965 20.7349 435.839 73.2118 408.491L73.2317 408.481L73.2516 408.47L121.412 383.152L162.96 361.31L116.052 359.596C78.7771 358.234 43.369 337.767 24.8532 302.948L24.853 302.948C-2.67904 251.178 17.349 187.052 69.826 159.704L69.8444 159.694L69.8629 159.685L326.648 24.7736C326.654 24.7707 326.659 24.7678 326.665 24.7649C379.213 -2.60851 444.185 17.4002 471.751 69.2345C499.283 121.004 479.255 185.13 426.778 212.478Z" stroke="white" stroke-width="25"/>
<path d="M215 249V371.794L315 310.543L215 249Z" fill="white"/>
</svg>
